<svg width="458" height="132" viewBox="0 0 458 132" fill="none" xmlns="http://www.w3.org/2000/svg">
<path fill-rule="evenodd" clip-rule="evenodd" d="M323.027 10.9816C321.113 10.9029 319.221 11.4351 317.518 12.436C316.23 13.1928 316.218 13.1729 316.214 11.6252C316.213 11.1272 316.214 10.6292 316.214 10.1311C316.214 8.222 316.219 6.3128 316.212 4.40373C316.208 2.94034 315.997 2.72844 314.569 2.71315C314.15 2.70865 313.731 2.70853 313.312 2.71307C311.948 2.72785 311.866 2.79668 311.863 4.10826C311.855 6.97193 311.86 9.83565 311.86 12.6993H311.857C311.857 15.5631 311.857 18.4267 311.857 21.2905C311.857 21.7855 311.774 22.3184 312.235 22.6735C313.16 23.3875 314.125 24.0535 315.164 24.5914C315.729 24.8843 316.122 24.6278 316.19 23.9517C316.247 23.376 316.239 22.7893 316.208 22.2102C316.133 20.823 316.592 19.5908 317.325 18.4543C319.898 14.4628 325.413 14.2798 328.238 18.0532C329.737 20.0541 329.988 22.3127 329.619 24.6786C329.344 26.4463 328.383 27.8218 326.925 28.8643C324.445 30.6374 321.693 30.7356 318.896 29.9657C316.243 29.2357 313.959 27.7232 311.737 26.1593C310.1 25.0069 308.53 23.7609 306.911 22.5815C304.158 20.576 301.086 19.9083 297.764 20.6671C294.183 21.4852 291.637 23.6082 290.192 26.9742C289.766 27.9677 290.037 28.3566 291.133 28.3866C292.054 28.4118 292.977 28.3704 293.897 28.3996C294.519 28.4192 294.943 28.1941 295.19 27.6264C295.272 27.4371 295.389 27.2618 295.499 27.0849C296.735 25.0863 298.937 24.2156 301.226 24.8187C302.245 25.0871 303.191 25.5141 304.08 26.0764C306.094 27.3495 308.02 28.7447 309.931 30.1628C313.803 33.0362 317.924 35.099 323 34.6739C326.442 34.3857 329.303 33.1248 331.518 30.5133C333.28 28.4355 334.061 26.0101 334.097 23.2846C334.129 20.8581 333.69 18.5843 332.429 16.4998C330.304 12.9861 327.095 11.1491 323.027 10.9816Z" fill="white"/>
<path fill-rule="evenodd" clip-rule="evenodd" d="M403.342 22.3057C402.806 21.6027 402.813 21.554 403.39 20.9498C404.311 19.9859 405.238 19.0281 406.173 18.0777C407.781 16.4437 409.4 14.8208 411.005 13.1837C411.223 12.9614 411.592 12.7676 411.415 12.3611C411.236 11.9511 410.85 11.9204 410.458 11.9219C409.537 11.9255 408.613 11.9602 407.694 11.9083C407.001 11.869 406.523 12.1191 406.055 12.6102C403.182 15.6271 400.285 18.6222 397.387 21.6151C397.107 21.9041 396.827 22.4521 396.441 22.3227C396.315 22.2807 396.236 22.2136 396.186 22.1313V21.1116C396.167 15.758 396.174 10.4044 396.174 5.05073C396.174 4.76024 396.191 4.4681 396.166 4.17958C396.111 3.53274 395.877 3.25091 395.254 3.2242C394.376 3.18658 393.495 3.20096 392.616 3.22913C392.132 3.24466 391.848 3.51121 391.858 4.02762C391.865 4.3594 391.854 4.69157 391.854 5.02355C391.854 9.54714 391.854 14.0708 391.854 18.5944C391.854 21.2919 391.854 23.9895 391.854 26.687C391.854 28.8036 391.844 30.9203 391.86 33.0367C391.867 33.9316 392.005 34.0781 392.848 34.1129C393.601 34.1439 394.357 34.143 395.11 34.1137C395.896 34.0831 396.134 33.8373 396.167 33.0452C396.172 32.9077 396.179 32.7697 396.186 32.6314V32.6314V32.6312C396.208 32.1825 396.227 31.7316 396.186 31.29V30.2466C396.186 30.2466 396.117 29.4299 396.319 28.6488C396.41 28.3649 396.531 28.0922 396.678 27.8287C397.035 27.3247 397.998 26.3427 398.765 25.5876C399.913 24.5352 399.694 24.427 401.16 26.309C402.977 28.6403 404.802 30.9666 406.588 33.3208C407.04 33.9158 407.55 34.1824 408.294 34.1315C408.961 34.0859 409.633 34.1264 410.303 34.1205C410.798 34.1161 411.391 34.244 411.65 33.6959C411.914 33.135 411.37 32.802 411.081 32.4239C408.505 29.0485 405.918 25.6811 403.342 22.3057Z" fill="white"/>
<path fill-rule="evenodd" clip-rule="evenodd" d="M354.465 28.2772C351.844 31.2567 346.802 31.6636 343.73 28.1289C340.978 24.9633 341.296 19.868 344.314 17.1881C345.691 15.9655 347.262 15.3359 348.748 15.4187C351.785 15.3957 353.774 16.5879 355.177 18.7754C357.061 21.7141 356.772 25.655 354.465 28.2772ZM349.139 11.4747C341.884 11.4695 337.516 17.2498 337.512 23.0105C337.507 28.8562 341.777 34.5014 348.979 34.5474C356.242 34.5938 360.759 29.0711 360.727 23.0145C360.819 17.1158 356.353 11.48 349.139 11.4747Z" fill="white"/>
<path fill-rule="evenodd" clip-rule="evenodd" d="M383.335 23.1196C383.222 26.0017 382.123 28.3658 379.484 29.7831C375.447 31.9509 370.318 29.8814 369.056 24.9835C368.499 22.8262 368.79 20.764 369.91 18.8667C371.15 16.7674 373.009 15.619 375.52 15.4224C380.47 15.0349 383.534 19.4723 383.335 23.1196ZM376.108 11.4788C369.077 11.4838 364.478 16.8424 364.466 22.9922C364.453 29.2441 368.997 34.5689 376.031 34.5482C383.706 34.5255 387.805 28.4797 387.648 23.0338C387.905 17.3878 383.439 11.4737 376.108 11.4788Z" fill="white"/>
<path fill-rule="evenodd" clip-rule="evenodd" d="M455.302 11.9221C454.758 11.9171 454.213 11.9195 453.668 11.9218C452.407 11.9273 452.391 11.9219 451.946 13.062C450.166 17.6231 448.405 22.192 446.607 26.7466C446.583 26.8069 446.564 26.8743 446.547 26.9447C446.479 27.1194 446.402 27.2992 446.334 27.4207C446.158 27.7337 445.931 27.7078 445.776 27.7078C445.62 27.7078 445.496 27.4514 445.496 27.4514L445.102 26.6532C443.21 22.3772 441.344 18.0895 439.443 13.8173C438.493 11.6843 439.024 11.9399 436.546 11.9324C436.001 11.9324 435.453 11.8945 434.913 11.9424C434.302 11.9967 434.134 12.2961 434.345 12.8725C434.488 13.2614 434.666 13.6383 434.839 14.0152C437.62 20.0501 440.369 26.0999 443.215 32.1044C443.742 33.2162 443.569 34.0326 442.985 34.9871C442.094 36.4432 440.83 37.0219 439.171 36.783C438.639 36.7064 438.116 36.5269 437.607 36.3449C436.48 35.9426 436.427 35.9495 435.919 37.0525C435.727 37.4671 435.592 37.9088 435.381 38.3124C434.856 39.3165 435.239 39.536 436.088 39.8711C437.425 40.3977 438.799 40.6285 440.249 40.6443C442.787 40.6724 444.665 39.5937 446.074 37.5776C446.769 36.5827 447.293 35.4999 447.752 34.3832C449.741 29.5459 451.732 24.7098 453.719 19.8717C454.603 17.7214 455.479 15.5683 456.356 13.4155C456.889 12.1068 456.768 11.9355 455.302 11.9221Z" fill="white"/>
<path fill-rule="evenodd" clip-rule="evenodd" d="M427.622 21.858C426.153 21.2456 424.598 20.8993 423.1 20.3801C422.348 20.1195 421.604 19.8508 420.947 19.3857C419.574 18.4127 419.615 16.8144 421.052 15.9291C421.897 15.4082 422.864 15.2235 423.819 15.3007C425.454 15.4331 427.018 15.8924 428.461 16.7015C428.716 16.8445 428.973 16.9845 429.238 17.1091C429.724 17.3384 430.129 17.2566 430.419 16.7768C430.72 16.2789 431.039 15.7913 431.329 15.2871C431.857 14.3692 431.804 14.1075 430.887 13.598C428.666 12.3635 426.316 11.56 423.727 11.6534C423.308 11.6534 422.889 11.6303 422.471 11.6574C420.469 11.7877 418.744 12.5332 417.368 13.9973C415.123 16.3851 414.922 20.8961 418.654 22.9596C419.534 23.446 420.446 23.8607 421.409 24.1544C422.327 24.4343 423.26 24.6646 424.173 24.9607C425.163 25.2822 426.183 25.5497 427.049 26.1661C428.289 27.0492 428.434 28.5011 427.384 29.5995C426.748 30.2656 425.936 30.5358 425.027 30.6135C422.543 30.8259 420.281 30.1653 418.256 28.7977C416.479 27.5966 416.59 28.1163 415.729 29.2739C414.458 30.9827 414.494 31.0944 416.384 32.2338C419.069 33.8525 421.979 34.5958 425.126 34.3909C427.071 34.2644 428.793 33.602 430.23 32.2872C432.537 30.176 432.932 26.0566 430.771 23.8522C429.879 22.9416 428.79 22.3452 427.622 21.858Z" fill="white"/>
<path fill-rule="evenodd" clip-rule="evenodd" d="M250 20H247.561V21V22H250V20ZM42.0151 20H40C39.3417 20 38.687 20.0159 38.0365 20.0474L38.0848 21.0462L38.133 22.045C38.7514 22.0151 39.3739 22 40 22H42.0151V21V20ZM34.1286 20.4279C32.8233 20.6199 31.5384 20.8749 30.2773 21.1899L30.5196 22.1601L30.7619 23.1303C31.9595 22.8312 33.1797 22.589 34.4196 22.4066L34.2741 21.4172L34.1286 20.4279ZM26.5202 22.3282L26.8572 23.2697L27.1941 24.2112C26.0184 24.632 24.8693 25.1091 23.7502 25.6393L23.3221 24.7356L22.8939 23.8319C24.0722 23.2736 25.2821 22.7712 26.5202 22.3282ZM19.4333 25.6854C18.3087 26.3608 17.2201 27.09 16.171 27.8693L16.7673 28.6721L17.3636 29.4748C18.3605 28.7343 19.3948 28.0416 20.4631 27.3999L19.9482 26.5426L19.4333 25.6854ZM13.1376 30.3616L13.8094 31.1023L14.4812 31.8431C13.5595 32.679 12.679 33.5595 11.8431 34.4812L11.1023 33.8094L10.3616 33.1376C11.2412 32.1677 12.1677 31.2412 13.1376 30.3616ZM7.86934 36.171L8.67209 36.7673L9.47483 37.3636C8.73432 38.3605 8.04155 39.3948 7.39988 40.4631L6.54263 39.9482L5.68538 39.4333C6.36084 38.3087 7.09001 37.2201 7.86934 36.171ZM3.83188 42.8939L4.73558 43.3221L5.63928 43.7502C5.10906 44.8693 4.63196 46.0184 4.21122 47.1941L3.26969 46.8572L2.32816 46.5202C2.77124 45.2821 3.27362 44.0722 3.83188 42.8939ZM1.18986 50.2773L2.16007 50.5196L3.13028 50.7619C2.83122 51.9595 2.58897 53.1797 2.40658 54.4196L1.41723 54.2741L0.427873 54.1286C0.619882 52.8233 0.874942 51.5384 1.18986 50.2773ZM2 130V132H0V130H1H2ZM0 126H1H2V122H1H0V126ZM0 118H1H2V114H1H0V118ZM0 110H1H2V106H1H0V110ZM0 102H1H2V98H1H0V102ZM0 94H1H2V90H1H0V94ZM0 86H1H2V82H1H0V86ZM0 78H1H2V74H1H0V78ZM0 70H1H2V66H1H0V70ZM0 62H1H2V60C2 59.3739 2.01513 58.7514 2.04502 58.133L1.04618 58.0848L0.0473505 58.0365C0.0159046 58.687 0 59.3417 0 60V62ZM46.0454 20V21V22H50.0757V21V20H46.0454ZM54.106 20V21V22H58.1363V21V20H54.106ZM62.1666 20V21V22H66.1969V21V20H62.1666ZM70.2272 20V21V22H74.2575V21V20H70.2272ZM78.2878 20V21V22H82.3181V21V20H78.2878ZM86.3485 20V21V22H90.3788V21V20H86.3485ZM94.4091 20V21V22H98.4394V21V20H94.4091ZM102.47 20V21V22H106.5V21V20H102.47ZM110.53 20V21V22H114.561V21V20H110.53ZM118.591 20V21V22H122.621V21V20H118.591ZM126.651 20V21V22H130.682V21V20H126.651ZM134.712 20V21V22H138.742V21V20H134.712ZM142.773 20V21V22H146.803V21V20H142.773ZM150.833 20V21V22H154.864V21V20H150.833ZM158.894 20V21V22H162.924V21V20H158.894ZM166.955 20V21V22H170.985V21V20H166.955ZM175.015 20V21V22H179.045V21V20H175.015ZM183.076 20V21V22H187.106V21V20H183.076ZM191.136 20V21V22H195.167V21V20H191.136ZM199.197 20V21V22H203.227V21V20H199.197ZM207.258 20V21V22H211.288V21V20H207.258ZM215.318 20V21V22H219.348V21V20H215.318ZM223.379 20V21V22H227.409V21V20H223.379ZM231.439 20V21V22H235.47V21V20H231.439ZM239.5 20V21V22H243.53V21V20H239.5Z" fill="white"/>
</svg>
