<svg width="32" height="32" viewBox="0 0 32 32" fill="none" xmlns="http://www.w3.org/2000/svg">
<mask id="mask0" mask-type="alpha" maskUnits="userSpaceOnUse" x="0" y="0" width="32" height="32">
<circle cx="16" cy="16" r="16" fill="#ff898d"/>
</mask>
<g mask="url(#mask0)">
<circle cx="16" cy="16" r="16" fill="#ff898d"/>
<path fill-rule="evenodd" clip-rule="evenodd" d="M20.245 11.4624C19.3191 11.4244 18.404 11.6815 17.5799 12.1649C16.9568 12.5305 16.9509 12.5209 16.9492 11.7733C16.9486 11.5327 16.9491 11.2922 16.9491 11.0516C16.9491 10.1294 16.9513 9.20721 16.9483 8.28506C16.946 7.5782 16.8439 7.47584 16.1533 7.46846C15.9506 7.46628 15.748 7.46622 15.5454 7.46842C14.8854 7.47555 14.8457 7.5088 14.8441 8.14234C14.8403 9.52559 14.8429 10.9089 14.8429 12.2921H14.8413C14.8413 13.6754 14.8412 15.0587 14.8414 16.4419C14.8414 16.6811 14.8014 16.9385 15.024 17.11C15.4717 17.4549 15.9383 17.7766 16.4409 18.0364C16.7147 18.1779 16.9045 18.054 16.9373 17.7274C16.9651 17.4493 16.9611 17.1659 16.946 16.8862C16.91 16.2161 17.1321 15.621 17.4866 15.072C18.7315 13.1439 21.3991 13.0556 22.766 14.8782C23.491 15.8447 23.6123 16.9357 23.4341 18.0785C23.301 18.9324 22.836 19.5968 22.1307 20.1004C20.931 20.9568 19.5997 21.0043 18.2464 20.6324C16.963 20.2797 15.8584 19.5492 14.7833 18.7937C13.9911 18.2371 13.2316 17.6353 12.4485 17.0656C11.117 16.0968 9.6305 15.7743 8.02373 16.1408C6.29132 16.536 5.05934 17.5615 4.36045 19.1874C4.15419 19.6673 4.28533 19.8551 4.81581 19.8696C5.26129 19.8818 5.70769 19.8618 6.15304 19.8759C6.45377 19.8854 6.65861 19.7767 6.77829 19.5024C6.81819 19.411 6.87485 19.3263 6.92774 19.2409C7.52564 18.2755 8.59117 17.8549 9.69844 18.1462C10.1914 18.2759 10.6488 18.4821 11.0791 18.7537C12.0533 19.3687 12.9851 20.0426 13.9095 20.7276C15.7827 22.1156 17.7765 23.1119 20.2321 22.9066C21.8969 22.7674 23.2813 22.1583 24.3527 20.8969C25.205 19.8932 25.5828 18.7217 25.6001 17.4052C25.6157 16.2331 25.4033 15.1348 24.7935 14.1279C23.7655 12.4306 22.2131 11.5433 20.245 11.4624Z" fill="white"/>
</g>
</svg>
