<svg width="24" height="24" viewBox="0 0 24 24" fill="none" xmlns="http://www.w3.org/2000/svg">
<path fill-rule="evenodd" clip-rule="evenodd" d="M12.75 0.750017C8.93933 0.744523 5.42568 2.80695 3.5728 6.13683C1.71991 9.4667 1.81953 13.5397 3.833 16.775L0.75 23.25L7.225 20.167C11.0113 22.5211 15.8714 22.2274 19.3466 19.4345C22.8219 16.6416 24.1544 11.9585 22.6701 7.7544C21.1859 3.55028 17.2084 0.741917 12.75 0.750017Z" stroke="white" stroke-width="1.2" stroke-linecap="round" stroke-linejoin="round"/>
<path d="M15.0059 10.5C15.4201 10.5 15.7559 10.1642 15.7559 9.75C15.7559 9.33579 15.4201 9 15.0059 9V9C14.5916 9 14.2559 9.33579 14.2559 9.75C14.2559 10.1642 14.5916 10.5 15.0059 10.5" stroke="white" stroke-width="1.2" stroke-linecap="round" stroke-linejoin="round"/>
<path d="M15.1714 13.755C16.1092 13.3232 16.7311 12.4079 16.7874 11.377C16.7874 10.332 16.2304 9 14.9434 9" stroke="white" stroke-width="1.2" stroke-linecap="round" stroke-linejoin="round"/>
<path d="M9.75586 10.5C10.1701 10.5 10.5059 10.1642 10.5059 9.75C10.5059 9.33579 10.1701 9 9.75586 9V9C9.34165 9 9.00586 9.33579 9.00586 9.75C9.00586 10.1642 9.34165 10.5 9.75586 10.5" stroke="white" stroke-width="1.2" stroke-linecap="round" stroke-linejoin="round"/>
<path d="M9.92136 13.755C10.8592 13.3232 11.4811 12.4079 11.5374 11.377C11.5374 10.332 10.9804 9 9.69336 9" stroke="white" stroke-width="1.2" stroke-linecap="round" stroke-linejoin="round"/>
</svg>
