<?xml version="1.0"?>
<svg xmlns="http://www.w3.org/2000/svg" width="124" height="45" viewBox="0 0 124 45" fill="none">
<path d="M0 8.31985H7.38162L11.6733 19.1866L16.0221 8.31985H23.2321L12.4171 34.0717H5.20719L8.18272 27.2234L0 8.31985ZM30.6709 7.86707C25.1204 7.86707 21.6299 12.791 21.6299 17.6584C21.6299 23.1484 25.4637 27.563 30.5565 27.563C34.3904 27.563 35.8209 25.2425 35.8209 25.2425V27.0536H42.2298V8.31985H35.8209V10.0178C35.8209 10.0178 34.2187 7.86707 30.6709 7.86707ZM32.0443 13.923C34.6193 13.923 35.9354 15.9039 35.9354 17.715C35.9354 19.6393 34.5048 21.5636 32.0443 21.5636C29.9843 21.5636 28.1532 19.9224 28.1532 17.7716C28.1532 15.6209 29.6409 13.923 32.0443 13.923ZM44.4614 27.0536V0H51.2136V10.0744C51.2136 10.0744 52.8158 7.86707 56.1347 7.86707C60.2546 7.86707 62.658 10.8667 62.658 15.2247V27.0536H55.963V16.8094C55.963 15.3379 55.2763 13.923 53.6742 13.923C52.072 13.923 51.2136 15.3379 51.2136 16.8094V27.0536H44.4614ZM74.1024 7.86707C67.7507 7.86707 63.9741 12.6213 63.9741 17.7716C63.9741 23.6012 68.5518 27.563 74.1024 27.563C79.4812 27.563 84.2306 23.7709 84.2306 17.8849C84.2879 11.3761 79.3096 7.86707 74.1024 7.86707ZM74.1596 13.9796C76.3912 13.9796 77.9362 15.8473 77.9362 17.7716C77.9362 19.4696 76.5057 21.5071 74.1596 21.5071C71.9851 21.5071 70.3829 19.8092 70.3829 17.715C70.4402 15.7908 71.7563 13.9796 74.1596 13.9796ZM95.5032 7.86707C89.1517 7.86707 85.3751 12.6213 85.3751 17.7716C85.3751 23.6012 89.9526 27.563 95.5032 27.563C100.882 27.563 105.632 23.7709 105.632 17.8849C105.632 11.3761 100.71 7.86707 95.5032 7.86707ZM95.5603 13.9796C97.7923 13.9796 99.3374 15.8473 99.3374 17.7716C99.3374 19.4696 97.9065 21.5071 95.5603 21.5071C93.3863 21.5071 91.7841 19.8092 91.7841 17.715C91.7841 15.7908 93.157 13.9796 95.5603 13.9796Z" fill="#06000C"/>
<path d="M110.951 27.4503C113.416 27.4503 115.415 25.4738 115.415 23.0357C115.415 20.5976 113.416 18.6211 110.951 18.6211C108.487 18.6211 106.488 20.5976 106.488 23.0357C106.488 25.4738 108.487 27.4503 110.951 27.4503Z" fill="#06000C"/>
<path d="M116.904 16.9793H108.836L115.989 0H124L116.904 16.9793Z" fill="#06000C"/>
<path d="M75.7859 44.8745C75.4997 44.818 75.2709 44.818 74.9847 44.7613C73.4398 44.4217 72.2953 43.5161 71.6087 42.0446C70.5787 39.7807 70.6931 37.5734 72.2381 35.536C73.6114 33.7248 76.0147 33.3286 77.7886 34.0644C78.2464 34.2341 78.647 34.5172 78.9331 34.9134C78.9903 34.9699 79.0475 35.0266 79.1619 35.0266C79.1619 34.7435 79.1619 34.5172 79.1619 34.2341C79.1619 34.0078 79.2192 33.9512 79.4481 33.9512C80.5353 33.9512 81.6224 33.9512 82.7669 33.9512C82.9958 33.9512 83.053 34.0078 83.053 34.2341C83.053 37.5734 83.053 40.9127 83.053 44.2519C83.053 44.4784 82.9958 44.5349 82.7669 44.5349C81.6797 44.5349 80.5924 44.5349 79.5053 44.5349C79.2764 44.5349 79.2192 44.4784 79.2192 44.2519C79.2192 44.0255 79.2192 43.7426 79.2192 43.5161C79.1619 43.5161 79.1619 43.4596 79.1047 43.4596C79.0475 43.5161 79.0475 43.6294 78.9903 43.686C78.3608 44.3651 77.5025 44.7613 76.587 44.8745C76.4725 44.8745 76.4153 44.9311 76.3581 44.9311C76.072 44.8745 75.9575 44.8745 75.7859 44.8745ZM77.0447 41.4787C78.3036 41.4787 79.2764 40.5165 79.2764 39.2713C79.2764 38.0262 78.3036 37.1207 76.9875 37.1207C75.7859 37.1207 74.7559 38.0828 74.7559 39.2713C74.7559 40.5165 75.7859 41.4787 77.0447 41.4787Z" fill="black"/>
<path d="M110.81 44.8751C110.58 44.8184 110.294 44.8184 110.066 44.7619C107.662 44.4788 105.888 42.7809 105.545 40.4038C105.316 39.0455 105.487 37.6872 106.174 36.4986C107.09 34.9138 108.463 34.0083 110.294 33.7253C111.381 33.5556 112.469 33.6688 113.498 34.1215C115.216 34.8573 116.188 36.2156 116.531 38.0267C116.646 38.6493 116.703 39.2719 116.646 39.8945C116.646 40.1209 116.589 40.1774 116.302 40.1774C114.071 40.1774 111.782 40.1774 109.55 40.1774C109.436 40.1774 109.322 40.1774 109.207 40.1774C109.207 40.6868 109.436 41.083 109.779 41.366C110.637 42.1018 111.953 42.0452 112.754 41.1962C112.927 41.0264 113.041 40.9698 113.27 41.083C114.185 41.4226 115.101 41.7621 116.017 42.1018C116.074 42.1018 116.188 42.1583 116.245 42.215C115.959 42.6677 115.616 43.0639 115.216 43.4035C114.357 44.1393 113.384 44.5355 112.24 44.6487C111.953 44.7052 111.725 44.7052 111.439 44.7619C111.21 44.8751 110.981 44.8751 110.81 44.8751ZM112.812 38.0833C112.869 37.6872 112.583 37.1778 112.125 36.8948C111.381 36.442 110.637 36.442 109.951 36.8382C109.493 37.0646 109.207 37.5173 109.149 38.0267C110.408 38.0833 111.611 38.0833 112.812 38.0833Z" fill="black"/>
<path d="M101.764 44.8746C101.422 44.8179 101.078 44.7614 100.735 44.7047C98.3887 44.3086 96.7294 42.4974 96.386 40.1769C96.2147 38.8186 96.386 37.5169 97.0729 36.3283C97.9882 34.8001 99.4191 33.9512 101.193 33.7248C102.223 33.5551 103.252 33.6683 104.283 34.0644C104.511 34.121 104.569 34.2342 104.569 34.5172C104.569 35.4794 104.569 36.4415 104.569 37.4037C104.569 37.4603 104.569 37.5735 104.569 37.63C104.111 37.4603 103.71 37.2905 103.309 37.2339C102.394 37.0641 101.479 37.1773 100.792 37.9131C100.22 38.5356 100.105 39.2714 100.391 40.0637C100.678 40.8561 101.307 41.2524 102.108 41.4221C102.909 41.5919 103.653 41.4221 104.34 41.0259C104.397 40.9693 104.454 40.9693 104.569 40.9127C104.569 41.0259 104.569 41.0825 104.569 41.1391C104.569 42.1013 104.569 43.12 104.569 44.0821C104.569 44.252 104.511 44.3652 104.34 44.4218C103.768 44.6482 103.138 44.8179 102.508 44.8746C102.394 44.8746 102.337 44.9311 102.28 44.9311C102.108 44.8746 101.937 44.8746 101.764 44.8746Z" fill="black"/>
<path d="M88.6034 35.196C88.6606 35.1394 88.7178 35.0827 88.7751 35.0262C89.4045 34.2337 90.2055 33.8376 91.2359 33.781C92.037 33.7245 92.8381 33.8376 93.5241 34.2904C94.4974 34.913 94.955 35.8185 95.1263 36.8373C95.1843 37.29 95.2414 37.7429 95.2414 38.2522C95.2414 40.2897 95.2414 42.3272 95.2414 44.3082C95.2414 44.5345 95.1843 44.5912 94.955 44.5912C93.8676 44.5912 92.781 44.5912 91.6935 44.5912C91.4643 44.5912 91.4072 44.478 91.4072 44.2515C91.4072 42.4971 91.4072 40.7425 91.4072 38.9314C91.4072 38.6484 91.3501 38.422 91.293 38.139C91.1208 37.573 90.7203 37.1768 90.1485 37.1768C89.5757 37.1203 89.0612 37.4033 88.8323 37.9692C88.7178 38.3088 88.6606 38.6484 88.6034 38.988C88.6034 40.7425 88.6034 42.4971 88.6034 44.2515C88.6034 44.478 88.5462 44.5345 88.3173 44.5345C87.2301 44.5345 86.1428 44.5345 85.0556 44.5345C84.8267 44.5345 84.7695 44.478 84.7695 44.2515C84.7695 40.9123 84.7695 37.6297 84.7695 34.2904C84.7695 34.064 84.8267 34.0074 85.0556 34.0074C86.1428 34.0074 87.2873 34.0074 88.3745 34.0074C88.6034 34.0074 88.6606 34.064 88.6606 34.2904C88.6606 34.5734 88.6606 34.8563 88.6606 35.1394C88.5462 35.196 88.6034 35.196 88.6034 35.196Z" fill="black"/>
<path d="M63.257 35.1964C63.3714 35.0832 63.4859 34.9134 63.6002 34.8003C64.1725 34.1777 64.9736 33.8381 65.8319 33.7815C66.5758 33.7248 67.3197 33.8381 68.0064 34.1777C69.0364 34.7436 69.5514 35.6492 69.7803 36.7245C69.8374 37.0641 69.8947 37.4603 69.8947 37.8565C69.8947 40.0072 69.8947 42.1013 69.8947 44.252C69.8947 44.5916 69.8947 44.5916 69.5514 44.5916C68.4642 44.5916 67.4342 44.5916 66.3469 44.5916C66.0036 44.5916 66.0036 44.5916 66.0036 44.252C66.0036 42.4409 66.0036 40.6298 66.0036 38.762C66.0036 38.4791 65.9463 38.1961 65.8319 37.9697C65.6603 37.4603 65.2597 37.1773 64.7447 37.1773C64.2297 37.1208 63.772 37.3471 63.4858 37.7999C63.3142 38.0829 63.1997 38.4225 63.1997 38.762C63.1997 40.5731 63.1997 42.4409 63.1997 44.252C63.1997 44.5916 63.1997 44.5916 62.8564 44.5916C61.7691 44.5916 60.682 44.5916 59.5948 44.5916C59.3659 44.5916 59.3086 44.535 59.3086 44.3086C59.3086 40.9693 59.3086 37.6867 59.3086 34.3474C59.3086 34.121 59.3659 34.0645 59.5948 34.0645C60.682 34.0645 61.8264 34.0645 62.9136 34.0645C63.1425 34.0645 63.1997 34.121 63.1997 34.3474C63.1997 34.6304 63.1997 34.9134 63.1997 35.1964C63.257 35.1398 63.257 35.1964 63.257 35.1964Z" fill="black"/>
<path d="M52.4967 32.2525C52.1533 32.1959 51.8672 32.1393 51.5811 32.0827C50.3794 31.9695 49.6356 32.6486 49.6927 33.8372C49.6927 34.007 49.8072 34.007 49.9217 34.007C50.6083 34.007 51.2949 34.007 52.0388 34.007C52.2678 34.007 52.3249 34.0636 52.3249 34.3466C52.3249 35.1956 52.3249 35.9879 52.3249 36.8369C52.3249 37.0632 52.2678 37.1199 52.0388 37.1199C51.4094 37.1199 50.78 37.1199 50.1506 37.1199C49.6927 37.1199 49.6927 37.1199 49.6927 37.6293C49.6927 39.8366 49.6927 42.1005 49.6927 44.3078C49.6927 44.6473 49.6927 44.6473 49.3495 44.6473C48.2622 44.6473 47.2322 44.6473 46.145 44.6473C45.8016 44.6473 45.8016 44.6473 45.8016 44.3078C45.8016 42.0438 45.8016 39.7233 45.8016 37.4595C45.8016 37.1764 45.8016 37.1764 45.4584 37.1764C45.1723 37.1764 44.8289 37.1764 44.5428 37.1764C44.3711 37.1764 44.3711 37.1199 44.3711 37.0067C44.3711 36.1011 44.3711 35.2521 44.3711 34.3466C44.3711 34.1768 44.4284 34.1202 44.6 34.1202C44.9434 34.1202 45.2295 34.1202 45.5728 34.1202C45.8016 34.1202 45.8589 34.0636 45.8589 33.8372C45.8589 33.0448 45.9734 32.3091 46.2595 31.5733C46.8316 30.1017 47.9761 29.2528 49.5783 28.9698C50.4938 28.8 51.3522 28.8566 52.2678 29.0831C52.4967 29.1396 52.5538 29.2528 52.5538 29.4792C52.5538 30.3281 52.5538 31.1771 52.5538 32.0261C52.4967 32.0827 52.4967 32.1959 52.4967 32.2525Z" fill="black"/>
<path d="M57.6464 39.2715C57.6464 40.9127 57.6464 42.5541 57.6464 44.252C57.6464 44.4784 57.5892 44.5916 57.3602 44.5916C56.2731 44.5916 55.1859 44.5916 54.0986 44.5916C53.8698 44.5916 53.8125 44.5351 53.8125 44.3087C53.8125 40.9694 53.8125 37.6867 53.8125 34.3474C53.8125 34.1211 53.8698 34.0645 54.0986 34.0645C55.1859 34.0645 56.2731 34.0645 57.4175 34.0645C57.6464 34.0645 57.7036 34.1211 57.7036 34.3474C57.5891 35.9888 57.6464 37.6301 57.6464 39.2715Z" fill="black"/>
<path d="M55.7043 28.7441C56.9059 28.7441 57.9359 29.8195 57.8215 30.9514C57.7642 32.0268 56.7915 32.989 55.5898 32.9323C54.3309 32.8758 53.4727 31.857 53.4727 30.725C53.587 29.6497 54.5598 28.7441 55.7043 28.7441Z" fill="black"/>
</svg>
