<?xml version="1.0"?>
<svg xmlns="http://www.w3.org/2000/svg" width="144" height="21" viewBox="0 0 144 21" fill="none">
<path d="M26.957 7.15312H40.3707V0.328125H26.957V7.15312Z" fill="#1A1919"/>
<path d="M0.132812 0.328125V7.15312H6.83967V20.8031H13.5465V7.15312H20.2534V0.328125H0.132812Z" fill="#1A1919"/>
<path d="M20.25 20.8023H40.3705V13.9773H26.9568V7.15234H20.25V20.8023Z" fill="#1A1919"/>
<path d="M57.4685 5.51172H47.6055V8.33358H50.8931V17.2586H54.1808V8.33358H57.4685V5.51172Z" fill="#1A1919"/>
<path d="M61.1516 8.26953C58.8502 8.26953 57.1406 9.84453 57.1406 12.8633C57.1406 15.5539 58.5872 17.457 61.2831 17.457C62.6639 17.457 63.7817 17.1289 64.8995 16.4727L63.7817 14.5695C62.9269 15.0289 62.2694 15.1602 61.4803 15.1602C60.6913 15.1602 60.0995 14.7008 59.968 13.782H65.1625C65.1625 13.6508 65.1625 13.4539 65.1625 13.1914C65.0968 9.84453 63.6502 8.26953 61.1516 8.26953ZM59.9023 11.8133C59.968 10.9602 60.3625 10.5008 61.0858 10.5008C61.9406 10.5008 62.2694 10.9602 62.4009 11.8133H59.9023Z" fill="#1A1919"/>
<path d="M70.884 14.9625C70.095 14.9625 69.6347 14.2406 69.6347 12.8625C69.6347 11.4844 70.0292 10.6969 70.8182 10.6969C71.4758 10.6969 71.7388 11.025 72.1991 11.8125L74.3032 10.2375C73.5141 8.99063 72.5936 8.20312 70.884 8.20312C68.0566 8.20312 66.6758 10.0406 66.6758 12.7312C66.6758 15.6844 68.2539 17.325 70.8182 17.325C72.3963 17.325 73.3169 16.7344 74.3689 15.225L72.4621 13.7156C71.8045 14.7 71.41 14.9625 70.884 14.9625Z" fill="#1A1919"/>
<path d="M81.272 8.26835C80.2199 8.26835 79.6282 8.59648 79.0364 9.05585V5.05273L76.0117 6.29961V17.3246H79.0364V12.2715C79.0364 11.1559 79.4309 10.8934 80.0884 10.8934C80.6802 10.8934 81.0747 11.2215 81.0747 12.3371V17.3246H84.0994V11.9434C84.1651 9.58085 83.1788 8.26835 81.272 8.26835Z" fill="#1A1919"/>
<path d="M91.4621 14.5687C90.0813 14.5687 89.4895 13.125 89.4895 11.3531C89.4895 9.51562 90.0813 8.1375 91.4621 8.1375C92.5142 8.1375 92.9744 8.85937 93.3689 9.90937L96.3279 8.72812C95.5388 6.49687 94.3553 5.25 91.4621 5.25C88.3059 5.25 86.0703 7.54688 86.0703 11.2875C86.0703 14.7656 87.9114 17.325 91.3963 17.325C94.2237 17.325 95.5388 15.8156 96.3279 14.3062L93.5662 12.8625C92.9087 14.0437 92.4484 14.5687 91.4621 14.5687Z" fill="#1A1919"/>
<path d="M101.193 9.05625V8.4H98.168V17.1938H101.193V12.4688C101.193 11.4187 101.653 11.025 102.376 11.025C102.968 11.025 103.428 11.3531 103.757 11.7469L104.48 8.59688C104.152 8.4 103.691 8.20312 103.034 8.20312C102.245 8.26875 101.653 8.59688 101.193 9.05625Z" fill="#1A1919"/>
<path d="M110.993 13.4535C110.993 14.5691 110.599 14.8316 110.007 14.8316C109.415 14.8316 109.021 14.5035 109.021 13.3879V8.40039H105.996V13.7816C105.996 16.0785 106.917 17.391 108.889 17.391C109.941 17.391 110.533 17.0629 111.059 16.6035V17.1941H114.084V8.46602H111.059L110.993 13.4535Z" fill="#1A1919"/>
<path d="M121.448 8.26953C120.396 8.26953 119.804 8.59766 119.212 9.05703V8.46641H116.188V17.2602H119.212V12.207C119.212 11.0914 119.607 10.8289 120.264 10.8289C120.856 10.8289 121.251 11.157 121.251 12.2727V17.2602H124.275V11.8133C124.341 9.58203 123.42 8.26953 121.448 8.26953Z" fill="#1A1919"/>
<path d="M130.325 14.9625C129.536 14.9625 129.075 14.2406 129.075 12.8625C129.075 11.4844 129.47 10.6969 130.193 10.6969C130.851 10.6969 131.114 11.025 131.574 11.8125L133.678 10.2375C132.889 8.99063 131.969 8.20312 130.259 8.20312C127.432 8.20312 126.051 10.0406 126.051 12.7312C126.051 15.6844 127.629 17.325 130.193 17.325C131.771 17.325 132.692 16.7344 133.744 15.225L131.837 13.7156C131.311 14.7 130.917 14.9625 130.325 14.9625Z" fill="#1A1919"/>
<path d="M140.78 8.26835C139.728 8.26835 139.136 8.59648 138.544 9.05585V5.05273L135.52 6.29961V17.3246H138.544V12.2715C138.544 11.1559 138.939 10.8934 139.596 10.8934C140.188 10.8934 140.583 11.2215 140.583 12.3371V17.3246H143.607V11.9434C143.673 9.58085 142.687 8.26835 140.78 8.26835Z" fill="#1A1919"/>
</svg>
