<?xml version="1.0"?>
<svg xmlns="http://www.w3.org/2000/svg" width="134" height="44" viewBox="0 0 134 44" fill="none">
<g clip-path="url(#clip0)">
<path d="M30.4183 23.4689L32.7487 22.2434V3.86041H30.9703L26.6773 9.55912H26.1867L26.4933 3.18637H45.1982L45.4435 9.6204H44.9528L40.7213 3.92169H38.8814V22.2434L41.2119 23.4689V24.0816H30.4183V23.4689ZM47.2833 22.6722V2.3285L45.4435 1.59318V1.22553L52.0055 0H52.7414V9.68168L52.9254 9.49784C54.5199 8.14976 56.4824 7.41444 58.5675 7.41444C61.4499 7.41444 62.7378 9.06888 62.7378 12.0714V22.611L64.271 23.4689V24.0203H55.6851V23.4689L57.1569 22.611V12.0102C57.1569 10.3557 56.4211 9.68168 55.0718 9.68168C54.2746 9.68168 53.416 9.9268 52.8027 10.417V22.6722L54.336 23.5302V24.0816H45.7501V23.5302L47.2833 22.6722ZM68.8705 16.4221C69.0545 19.7922 70.5877 22.3659 74.1446 22.3659C75.8618 22.3659 77.0884 21.5693 78.2535 20.9566V21.6306C76.7204 23.5302 74.3899 24.5718 71.9368 24.5718C66.4174 24.5718 63.5963 21.508 63.5963 16.177C63.5963 10.9685 66.7241 7.72082 71.6915 7.72082C76.4137 7.72082 78.8668 10.0494 78.8668 16.2382V16.4221H68.8705ZM68.7479 15.6254L73.654 15.3191C73.654 11.1523 72.9181 8.39488 71.5075 8.39488C69.9744 8.39488 68.7479 11.5812 68.7479 15.6254ZM0 32.2314C0 23.4076 5.88741 20.2212 12.3881 20.2212C15.1479 20.2212 17.7849 20.6502 19.2568 21.2629L19.3794 27.4518H18.7661L14.9025 21.4467C14.1052 21.1403 13.308 21.0178 12.4494 21.079C8.95377 21.079 7.17528 25.0621 7.23661 31.6799C7.29794 39.5233 8.64717 43.1386 11.8361 43.1386C12.5108 43.1386 13.1241 43.0773 13.7373 42.8322V34.3148L11.6521 33.0893V32.4152H21.8325V33.1506L19.7473 34.3148V42.6484C17.2943 43.5062 14.6572 43.9352 12.0815 43.9352C4.66087 43.9352 0 40.5037 0 32.2314ZM20.9126 28.0646V27.5744L27.7199 26.3489L28.4558 26.4102V39.891C28.4558 41.5454 29.2531 42.0356 30.5409 42.0356C31.3996 42.0356 32.1968 41.6679 32.7487 40.9939V28.8612L30.8476 28.0646V27.5131L37.655 26.2876L38.3295 26.3489V41.7905L40.1693 42.5871V43.0773L33.4847 43.8739L32.8101 43.8126V41.7905H32.6261C31.2769 43.1386 29.4371 43.8739 27.4746 43.9352C24.2242 43.9352 22.6911 41.9743 22.6911 39.0943V28.8612L20.9126 28.0646ZM63.7803 26.3489L64.3323 26.4102V31.4348H64.5163C65.2521 27.8195 66.8467 26.4102 68.8092 26.4102C69.1158 26.4102 69.3611 26.4102 69.6677 26.5326V31.6186C69.1771 31.4961 68.7479 31.4961 68.2572 31.4961C66.9694 31.4348 65.6815 31.7412 64.5163 32.2314V42.0969L66.0494 42.9547V43.6288H57.2183V42.9547L58.8128 42.0969V28.6161L56.9116 28.0646V27.6357L63.7803 26.3489ZM80.952 26.7778V21.508L79.0508 20.834V20.405L85.9807 19.1182L86.6555 19.2408V41.7905L88.5563 42.4646V43.016L81.6878 43.9965L81.1358 43.9352V42.0969H80.952C79.7867 43.3224 78.1309 44.0578 76.4137 43.9965C72.6728 43.9965 69.9744 41.1778 69.9744 35.3565C69.9744 29.2288 73.1021 26.2263 77.8856 26.2263C78.9895 26.165 79.9707 26.3489 80.952 26.7778ZM80.952 41.239V27.697C80.4 27.268 79.7254 27.0229 79.0508 27.0842C77.211 27.1454 76.0458 29.9642 76.0458 34.9275C76.0458 39.4007 76.8431 41.913 79.2961 41.7905C79.9094 41.7905 80.461 41.6066 80.952 41.239ZM95.9769 26.3489L96.5907 26.4102V42.0969L98.1233 42.9547V43.6288H89.2312V42.9547L90.8255 42.0969V28.8612L88.9246 28.1258V27.5744L95.9769 26.3489ZM96.5907 22.1208C96.5289 23.7752 95.1801 25.0008 93.585 25.0008C92.5427 25.0621 91.5003 24.5106 90.9483 23.5914C90.3962 22.6722 90.3962 21.508 90.9483 20.5889C91.5003 19.6697 92.4817 19.1182 93.585 19.1795C95.2411 19.1182 96.5907 20.405 96.5907 22.1208ZM116.521 42.0356V28.7386L114.621 28.0646V27.3906L121.428 26.1038L122.103 26.165V28.1871H122.287C123.881 26.7778 125.966 26.0425 128.113 26.0425C131.056 26.0425 132.406 27.4518 132.406 30.5769V42.0356L134 42.9547V43.6288H125.108V42.9547L126.702 42.0969V30.8833C126.702 29.1676 125.966 28.4935 124.556 28.4935C123.697 28.4935 122.9 28.7386 122.225 29.2288V42.0356L123.758 42.8934V43.5675H114.866V42.8934L116.521 42.0356ZM106.893 33.6407V31.3735C106.893 28.0033 106.158 26.9003 104.072 26.9003C103.827 26.9003 103.582 26.9003 103.336 26.9616L99.5957 31.9862H99.0437V27.3293C101.067 26.6552 103.153 26.2876 105.299 26.2263C109.837 26.2263 112.474 27.5131 112.474 31.3122V42.2194L114.13 42.6484V43.0773C113.087 43.6288 111.922 43.8739 110.757 43.8739C108.488 43.8739 107.446 43.1386 106.954 41.913H106.832C105.851 43.1998 104.563 43.9352 102.416 43.9352C99.7185 43.9352 97.8786 42.2194 97.8786 39.3394C97.8786 36.5207 99.6567 34.9888 103.214 34.3148L106.893 33.6407ZM106.893 41.239V34.4986L105.728 34.5599C103.95 34.7437 103.275 35.8467 103.275 38.359C103.275 41.0552 104.195 41.7905 105.422 41.7905C105.973 41.8518 106.525 41.6066 106.893 41.239ZM49.3071 33.6407V31.3735C49.3071 28.0033 48.5712 26.9003 46.486 26.9003C46.2408 26.9003 45.9955 26.9003 45.7501 26.9616L42.0092 31.9862H41.5185V27.3293C43.5423 26.6552 45.6275 26.2876 47.7739 26.2263C52.3122 26.2263 54.9492 27.5131 54.9492 31.3122V42.2194L56.605 42.6484V43.0773C55.5625 43.6288 54.3973 43.8739 53.232 43.8739C50.9629 43.8739 49.9204 43.1386 49.4297 41.913H49.2458C48.2646 43.1998 46.9766 43.9352 44.8302 43.9352C42.1318 43.9352 40.292 42.2194 40.292 39.3394C40.292 36.5207 42.0705 34.9888 45.6275 34.3148L49.3071 33.6407ZM49.3071 41.239V34.4986L48.1419 34.5599C46.3634 34.7437 45.6888 35.8467 45.6888 38.359C45.6888 41.0552 46.6087 41.7905 47.8353 41.7905C48.4485 41.8518 49.0004 41.6066 49.3071 41.239Z" fill="#121212"/>
</g>
<defs>
<clipPath id="clip0">
<rect width="134" height="44" fill="white"/>
</clipPath>
</defs>
</svg>
